<mxfile host="app.diagrams.net" modified="2024-03-26T11:57:30.357Z" agent="Mozilla/5.0 (Windows NT 10.0; Win64; x64) AppleWebKit/537.36 (KHTML, like Gecko) Chrome/123.0.0.0 Safari/537.36" etag="3b2Hcw2o34eQFXOqXOl4" version="24.0.7" type="github" pages="5">
  <diagram name="OT-MDM" id="iXr3DxbBh9tyG3I7lu1P">
    <mxGraphModel dx="1290" dy="661" grid="1" gridSize="10" guides="1" tooltips="1" connect="1" arrows="1" fold="1" page="1" pageScale="1" pageWidth="850" pageHeight="1100" math="0" shadow="0">
      <root>
        <mxCell id="0" />
        <mxCell id="1" parent="0" />
        <mxCell id="reyr7MXeVGvhNN7MZA6h-1" value="" style="rounded=0;whiteSpace=wrap;html=1;" parent="1" vertex="1">
          <mxGeometry x="140" y="135" width="400" height="290" as="geometry" />
        </mxCell>
        <mxCell id="reyr7MXeVGvhNN7MZA6h-2" value="Consent" style="text;html=1;strokeColor=none;fillColor=none;align=center;verticalAlign=middle;whiteSpace=wrap;rounded=0;" parent="1" vertex="1">
          <mxGeometry x="170" y="150" width="60" height="30" as="geometry" />
        </mxCell>
        <mxCell id="reyr7MXeVGvhNN7MZA6h-3" value="Purpose-1" style="rounded=0;whiteSpace=wrap;html=1;align=left;" parent="1" vertex="1">
          <mxGeometry x="170" y="205" width="340" height="60" as="geometry" />
        </mxCell>
        <mxCell id="reyr7MXeVGvhNN7MZA6h-4" value="Purpose-2" style="rounded=0;whiteSpace=wrap;html=1;align=left;" parent="1" vertex="1">
          <mxGeometry x="170" y="275" width="340" height="60" as="geometry" />
        </mxCell>
        <mxCell id="reyr7MXeVGvhNN7MZA6h-5" value="Purpose-3" style="rounded=0;whiteSpace=wrap;html=1;align=left;" parent="1" vertex="1">
          <mxGeometry x="170" y="345" width="340" height="60" as="geometry" />
        </mxCell>
        <mxCell id="reyr7MXeVGvhNN7MZA6h-6" value="Interaction date-1" style="text;html=1;strokeColor=none;fillColor=none;align=center;verticalAlign=middle;whiteSpace=wrap;rounded=0;" parent="1" vertex="1">
          <mxGeometry x="380" y="220" width="110" height="30" as="geometry" />
        </mxCell>
        <mxCell id="reyr7MXeVGvhNN7MZA6h-7" value="Interaction date-2" style="text;html=1;strokeColor=none;fillColor=none;align=center;verticalAlign=middle;whiteSpace=wrap;rounded=0;" parent="1" vertex="1">
          <mxGeometry x="380" y="290" width="110" height="30" as="geometry" />
        </mxCell>
        <mxCell id="reyr7MXeVGvhNN7MZA6h-8" value="Interaction date-2" style="text;html=1;strokeColor=none;fillColor=none;align=center;verticalAlign=middle;whiteSpace=wrap;rounded=0;" parent="1" vertex="1">
          <mxGeometry x="380" y="360" width="110" height="30" as="geometry" />
        </mxCell>
        <mxCell id="reyr7MXeVGvhNN7MZA6h-9" value="Consent object.&lt;br&gt;&lt;br&gt;&lt;div style=&quot;text-align: left;&quot;&gt;&lt;ul&gt;&lt;li&gt;&lt;span style=&quot;background-color: initial;&quot;&gt;&lt;b&gt;One Trust is sending the consent&lt;/b&gt; to MDM in this format (using REST API)&lt;/span&gt;&lt;/li&gt;&lt;li&gt;&lt;span style=&quot;background-color: initial;&quot;&gt;MDM &lt;b&gt;Data Model&lt;/b&gt; is also the same&lt;/span&gt;&lt;/li&gt;&lt;/ul&gt;&lt;div&gt;&lt;br&gt;&lt;/div&gt;&lt;div&gt;&lt;b&gt;&lt;i&gt;Interaction date (mandatory field)&lt;/i&gt;&amp;nbsp;&lt;/b&gt;is the timestamp for the consent timestamp from the local system by the user.&lt;/div&gt;&lt;div&gt;&lt;br&gt;&lt;/div&gt;&lt;/div&gt;" style="shape=document;whiteSpace=wrap;html=1;boundedLbl=1;fillColor=#fff2cc;strokeColor=#d6b656;" parent="1" vertex="1">
          <mxGeometry x="550" y="130" width="280" height="240" as="geometry" />
        </mxCell>
        <mxCell id="reyr7MXeVGvhNN7MZA6h-10" value="MDM_001" style="text;html=1;strokeColor=none;fillColor=none;align=center;verticalAlign=middle;whiteSpace=wrap;rounded=0;fontStyle=1" parent="1" vertex="1">
          <mxGeometry x="140" y="90" width="60" height="30" as="geometry" />
        </mxCell>
        <mxCell id="zFzDZJ6lFIhTBEleKPdN-1" value="Local_ID_001 - Yes - 111 - &lt;i&gt;&lt;b&gt;23-Jan-2024&lt;/b&gt;&lt;/i&gt;" style="text;html=1;align=center;verticalAlign=middle;whiteSpace=wrap;rounded=0;fontStyle=0" vertex="1" parent="1">
          <mxGeometry x="85" y="470" width="400" height="30" as="geometry" />
        </mxCell>
        <mxCell id="zFzDZJ6lFIhTBEleKPdN-2" value="Local_ID_001 - Yes - 111 - &lt;b&gt;23-Feb-2024&lt;/b&gt;" style="text;html=1;align=center;verticalAlign=middle;whiteSpace=wrap;rounded=0;fontStyle=2" vertex="1" parent="1">
          <mxGeometry x="85" y="520" width="400" height="30" as="geometry" />
        </mxCell>
        <mxCell id="zFzDZJ6lFIhTBEleKPdN-3" value="PAST - This is already stored in Informatica" style="text;html=1;align=center;verticalAlign=middle;whiteSpace=wrap;rounded=0;" vertex="1" parent="1">
          <mxGeometry x="505" y="470" width="280" height="30" as="geometry" />
        </mxCell>
        <mxCell id="zFzDZJ6lFIhTBEleKPdN-4" value="NOW - This is coming in the payload" style="text;html=1;align=center;verticalAlign=middle;whiteSpace=wrap;rounded=0;" vertex="1" parent="1">
          <mxGeometry x="505" y="520" width="260" height="30" as="geometry" />
        </mxCell>
      </root>
    </mxGraphModel>
  </diagram>
  <diagram id="JwgpI6v0fydB3AKI-9C6" name="MDM-OT">
    <mxGraphModel dx="1290" dy="661" grid="1" gridSize="10" guides="1" tooltips="1" connect="1" arrows="1" fold="1" page="1" pageScale="1" pageWidth="850" pageHeight="1100" math="0" shadow="0">
      <root>
        <mxCell id="0" />
        <mxCell id="1" parent="0" />
        <mxCell id="jvlo6oTxEAvihXrLPwBr-1" value="" style="rounded=0;whiteSpace=wrap;html=1;" parent="1" vertex="1">
          <mxGeometry x="45" y="210" width="400" height="160" as="geometry" />
        </mxCell>
        <mxCell id="jvlo6oTxEAvihXrLPwBr-2" value="Consent" style="text;html=1;strokeColor=none;fillColor=none;align=center;verticalAlign=middle;whiteSpace=wrap;rounded=0;" parent="1" vertex="1">
          <mxGeometry x="205" y="220" width="60" height="30" as="geometry" />
        </mxCell>
        <mxCell id="jvlo6oTxEAvihXrLPwBr-3" value="Purpose-1" style="rounded=0;whiteSpace=wrap;html=1;align=left;" parent="1" vertex="1">
          <mxGeometry x="75" y="280" width="340" height="60" as="geometry" />
        </mxCell>
        <mxCell id="jvlo6oTxEAvihXrLPwBr-4" value="Interaction date-1" style="text;html=1;strokeColor=none;fillColor=none;align=center;verticalAlign=middle;whiteSpace=wrap;rounded=0;" parent="1" vertex="1">
          <mxGeometry x="65" y="220" width="110" height="30" as="geometry" />
        </mxCell>
        <mxCell id="jvlo6oTxEAvihXrLPwBr-5" value="Consent object (Expected).&lt;b&gt;during submission&lt;/b&gt;&lt;br&gt;&lt;br&gt;&lt;div style=&quot;&quot;&gt;&lt;ul&gt;&lt;li style=&quot;&quot;&gt;&lt;span style=&quot;background-color: initial;&quot;&gt;One Trust expects the consent to be submitted in this format using the Consent submission API.&lt;/span&gt;&lt;/li&gt;&lt;/ul&gt;&lt;div&gt;&lt;br&gt;&lt;/div&gt;&lt;div&gt;So, need to send this three times.&lt;/div&gt;&lt;div&gt;&lt;br&gt;&lt;/div&gt;&lt;div&gt;Interaction date is the sme for all the purposes&lt;/div&gt;&lt;/div&gt;" style="shape=document;whiteSpace=wrap;html=1;boundedLbl=1;fillColor=#fff2cc;strokeColor=#d6b656;align=left;size=0.058823529411764705;" parent="1" vertex="1">
          <mxGeometry x="525" y="320" width="280" height="230" as="geometry" />
        </mxCell>
        <mxCell id="jvlo6oTxEAvihXrLPwBr-6" value="" style="rounded=0;whiteSpace=wrap;html=1;" parent="1" vertex="1">
          <mxGeometry x="45" y="410" width="400" height="160" as="geometry" />
        </mxCell>
        <mxCell id="jvlo6oTxEAvihXrLPwBr-7" value="Consent" style="text;html=1;strokeColor=none;fillColor=none;align=center;verticalAlign=middle;whiteSpace=wrap;rounded=0;" parent="1" vertex="1">
          <mxGeometry x="235" y="420" width="60" height="30" as="geometry" />
        </mxCell>
        <mxCell id="jvlo6oTxEAvihXrLPwBr-8" value="Purpose-2" style="rounded=0;whiteSpace=wrap;html=1;align=left;" parent="1" vertex="1">
          <mxGeometry x="75" y="480" width="340" height="60" as="geometry" />
        </mxCell>
        <mxCell id="jvlo6oTxEAvihXrLPwBr-9" value="Interaction date-2" style="text;html=1;strokeColor=none;fillColor=none;align=center;verticalAlign=middle;whiteSpace=wrap;rounded=0;" parent="1" vertex="1">
          <mxGeometry x="75" y="435" width="110" height="30" as="geometry" />
        </mxCell>
        <mxCell id="jvlo6oTxEAvihXrLPwBr-10" value="" style="rounded=0;whiteSpace=wrap;html=1;" parent="1" vertex="1">
          <mxGeometry x="45" y="610" width="400" height="160" as="geometry" />
        </mxCell>
        <mxCell id="jvlo6oTxEAvihXrLPwBr-11" value="Consent" style="text;html=1;strokeColor=none;fillColor=none;align=center;verticalAlign=middle;whiteSpace=wrap;rounded=0;" parent="1" vertex="1">
          <mxGeometry x="235" y="620" width="60" height="30" as="geometry" />
        </mxCell>
        <mxCell id="jvlo6oTxEAvihXrLPwBr-12" value="Purpose-3" style="rounded=0;whiteSpace=wrap;html=1;align=left;" parent="1" vertex="1">
          <mxGeometry x="75" y="680" width="340" height="60" as="geometry" />
        </mxCell>
        <mxCell id="jvlo6oTxEAvihXrLPwBr-13" value="Interaction date-3" style="text;html=1;strokeColor=none;fillColor=none;align=center;verticalAlign=middle;whiteSpace=wrap;rounded=0;" parent="1" vertex="1">
          <mxGeometry x="75" y="635" width="110" height="30" as="geometry" />
        </mxCell>
        <mxCell id="jvlo6oTxEAvihXrLPwBr-14" value="MDM_001" style="text;html=1;strokeColor=none;fillColor=none;align=center;verticalAlign=middle;whiteSpace=wrap;rounded=0;" parent="1" vertex="1">
          <mxGeometry x="45" y="180" width="60" height="30" as="geometry" />
        </mxCell>
        <mxCell id="jvlo6oTxEAvihXrLPwBr-15" value="MDM_001" style="text;html=1;strokeColor=none;fillColor=none;align=center;verticalAlign=middle;whiteSpace=wrap;rounded=0;" parent="1" vertex="1">
          <mxGeometry x="45" y="380" width="60" height="30" as="geometry" />
        </mxCell>
        <mxCell id="jvlo6oTxEAvihXrLPwBr-16" value="MDM_001" style="text;html=1;strokeColor=none;fillColor=none;align=center;verticalAlign=middle;whiteSpace=wrap;rounded=0;" parent="1" vertex="1">
          <mxGeometry x="45" y="580" width="60" height="30" as="geometry" />
        </mxCell>
        <mxCell id="RSynuTvnJzF3PBYp2YMw-2" value="OT" style="rounded=0;whiteSpace=wrap;html=1;" vertex="1" parent="1">
          <mxGeometry x="390" y="70" width="120" height="60" as="geometry" />
        </mxCell>
        <mxCell id="RSynuTvnJzF3PBYp2YMw-4" style="edgeStyle=orthogonalEdgeStyle;rounded=0;orthogonalLoop=1;jettySize=auto;html=1;" edge="1" parent="1" source="RSynuTvnJzF3PBYp2YMw-3" target="RSynuTvnJzF3PBYp2YMw-2">
          <mxGeometry relative="1" as="geometry" />
        </mxCell>
        <mxCell id="RSynuTvnJzF3PBYp2YMw-3" value="MDM" style="rounded=1;whiteSpace=wrap;html=1;" vertex="1" parent="1">
          <mxGeometry x="40" y="70" width="120" height="60" as="geometry" />
        </mxCell>
      </root>
    </mxGraphModel>
  </diagram>
  <diagram id="PtORiU_ocRqzdzv2F50y" name="OT-Scenario">
    <mxGraphModel dx="1290" dy="661" grid="1" gridSize="10" guides="1" tooltips="1" connect="1" arrows="1" fold="1" page="1" pageScale="1" pageWidth="850" pageHeight="1100" math="0" shadow="0">
      <root>
        <mxCell id="0" />
        <mxCell id="1" parent="0" />
      </root>
    </mxGraphModel>
  </diagram>
  <diagram id="27iWsrHA2Gw_Uu9LB8M7" name="Process">
    <mxGraphModel dx="1050" dy="661" grid="1" gridSize="10" guides="1" tooltips="1" connect="1" arrows="1" fold="1" page="1" pageScale="1" pageWidth="850" pageHeight="1100" math="0" shadow="0">
      <root>
        <mxCell id="0" />
        <mxCell id="1" parent="0" />
        <mxCell id="Se64f8x0FAVomV_Zp5eu-5" value="" style="edgeStyle=orthogonalEdgeStyle;rounded=0;orthogonalLoop=1;jettySize=auto;html=1;" parent="1" source="Se64f8x0FAVomV_Zp5eu-2" target="Se64f8x0FAVomV_Zp5eu-4" edge="1">
          <mxGeometry relative="1" as="geometry" />
        </mxCell>
        <mxCell id="Se64f8x0FAVomV_Zp5eu-2" value="Primary Process" style="shape=process;whiteSpace=wrap;html=1;backgroundOutline=1;" parent="1" vertex="1">
          <mxGeometry x="70" y="240" width="120" height="60" as="geometry" />
        </mxCell>
        <mxCell id="Se64f8x0FAVomV_Zp5eu-3" value="&lt;span style=&quot;color: rgb(0, 0, 0); font-family: Helvetica; font-size: 12px; font-style: normal; font-variant-ligatures: normal; font-variant-caps: normal; font-weight: 400; letter-spacing: normal; orphans: 2; text-align: center; text-indent: 0px; text-transform: none; widows: 2; word-spacing: 0px; -webkit-text-stroke-width: 0px; white-space: normal; background-color: rgb(251, 251, 251); text-decoration-thickness: initial; text-decoration-style: initial; text-decoration-color: initial; display: inline !important; float: none;&quot;&gt;Near real time ingestion from a Local System&lt;/span&gt;" style="text;whiteSpace=wrap;html=1;" parent="1" vertex="1">
          <mxGeometry x="60" y="330" width="140" height="40" as="geometry" />
        </mxCell>
        <mxCell id="Se64f8x0FAVomV_Zp5eu-7" style="edgeStyle=orthogonalEdgeStyle;rounded=0;orthogonalLoop=1;jettySize=auto;html=1;" parent="1" source="Se64f8x0FAVomV_Zp5eu-4" target="Se64f8x0FAVomV_Zp5eu-6" edge="1">
          <mxGeometry relative="1" as="geometry" />
        </mxCell>
        <mxCell id="Se64f8x0FAVomV_Zp5eu-4" value="Get the Consent Data from Payload" style="whiteSpace=wrap;html=1;" parent="1" vertex="1">
          <mxGeometry x="270" y="240" width="120" height="60" as="geometry" />
        </mxCell>
        <mxCell id="Se64f8x0FAVomV_Zp5eu-9" value="" style="edgeStyle=orthogonalEdgeStyle;rounded=0;orthogonalLoop=1;jettySize=auto;html=1;" parent="1" source="Se64f8x0FAVomV_Zp5eu-6" target="Se64f8x0FAVomV_Zp5eu-8" edge="1">
          <mxGeometry relative="1" as="geometry" />
        </mxCell>
        <mxCell id="Se64f8x0FAVomV_Zp5eu-21" value="Yes" style="edgeLabel;html=1;align=center;verticalAlign=middle;resizable=0;points=[];" parent="Se64f8x0FAVomV_Zp5eu-9" vertex="1" connectable="0">
          <mxGeometry x="-0.0044" y="-1" relative="1" as="geometry">
            <mxPoint as="offset" />
          </mxGeometry>
        </mxCell>
        <mxCell id="Se64f8x0FAVomV_Zp5eu-11" value="" style="edgeStyle=orthogonalEdgeStyle;rounded=0;orthogonalLoop=1;jettySize=auto;html=1;" parent="1" source="Se64f8x0FAVomV_Zp5eu-6" edge="1">
          <mxGeometry relative="1" as="geometry">
            <mxPoint x="555" y="120" as="targetPoint" />
          </mxGeometry>
        </mxCell>
        <mxCell id="Se64f8x0FAVomV_Zp5eu-20" value="No" style="edgeLabel;html=1;align=center;verticalAlign=middle;resizable=0;points=[];" parent="Se64f8x0FAVomV_Zp5eu-11" vertex="1" connectable="0">
          <mxGeometry x="-0.2398" relative="1" as="geometry">
            <mxPoint as="offset" />
          </mxGeometry>
        </mxCell>
        <mxCell id="Se64f8x0FAVomV_Zp5eu-6" value="IsConsentExists?" style="rhombus;whiteSpace=wrap;html=1;" parent="1" vertex="1">
          <mxGeometry x="500" y="220" width="110" height="100" as="geometry" />
        </mxCell>
        <mxCell id="Se64f8x0FAVomV_Zp5eu-28" value="" style="edgeStyle=orthogonalEdgeStyle;rounded=0;orthogonalLoop=1;jettySize=auto;html=1;" parent="1" source="Se64f8x0FAVomV_Zp5eu-8" target="Se64f8x0FAVomV_Zp5eu-27" edge="1">
          <mxGeometry relative="1" as="geometry" />
        </mxCell>
        <mxCell id="Se64f8x0FAVomV_Zp5eu-8" value="Get the &lt;b&gt;interaction_date &lt;/b&gt;from Payload" style="whiteSpace=wrap;html=1;" parent="1" vertex="1">
          <mxGeometry x="700" y="240" width="120" height="60" as="geometry" />
        </mxCell>
        <mxCell id="Se64f8x0FAVomV_Zp5eu-13" value="END" style="ellipse;whiteSpace=wrap;html=1;aspect=fixed;" parent="1" vertex="1">
          <mxGeometry x="530" y="70" width="50" height="50" as="geometry" />
        </mxCell>
        <mxCell id="Se64f8x0FAVomV_Zp5eu-17" value="" style="edgeStyle=orthogonalEdgeStyle;rounded=0;orthogonalLoop=1;jettySize=auto;html=1;" parent="1" source="Se64f8x0FAVomV_Zp5eu-14" target="Se64f8x0FAVomV_Zp5eu-16" edge="1">
          <mxGeometry relative="1" as="geometry" />
        </mxCell>
        <mxCell id="Se64f8x0FAVomV_Zp5eu-14" value="Get the &lt;b&gt;stored interaction_date&lt;/b&gt; from XREF (MDM DB)" style="whiteSpace=wrap;html=1;" parent="1" vertex="1">
          <mxGeometry x="380" y="380" width="120" height="60" as="geometry" />
        </mxCell>
        <mxCell id="Se64f8x0FAVomV_Zp5eu-24" value="" style="edgeStyle=orthogonalEdgeStyle;rounded=0;orthogonalLoop=1;jettySize=auto;html=1;entryX=0;entryY=0.5;entryDx=0;entryDy=0;" parent="1" source="Se64f8x0FAVomV_Zp5eu-16" target="Se64f8x0FAVomV_Zp5eu-34" edge="1">
          <mxGeometry relative="1" as="geometry">
            <mxPoint x="215" y="540" as="targetPoint" />
            <Array as="points">
              <mxPoint x="215" y="570" />
            </Array>
          </mxGeometry>
        </mxCell>
        <mxCell id="Se64f8x0FAVomV_Zp5eu-37" value="Yes" style="edgeLabel;html=1;align=center;verticalAlign=middle;resizable=0;points=[];" parent="Se64f8x0FAVomV_Zp5eu-24" vertex="1" connectable="0">
          <mxGeometry x="0.0222" y="-2" relative="1" as="geometry">
            <mxPoint as="offset" />
          </mxGeometry>
        </mxCell>
        <mxCell id="Se64f8x0FAVomV_Zp5eu-32" style="edgeStyle=orthogonalEdgeStyle;rounded=0;orthogonalLoop=1;jettySize=auto;html=1;" parent="1" source="Se64f8x0FAVomV_Zp5eu-16" target="Se64f8x0FAVomV_Zp5eu-18" edge="1">
          <mxGeometry relative="1" as="geometry" />
        </mxCell>
        <mxCell id="Se64f8x0FAVomV_Zp5eu-38" value="No" style="edgeLabel;html=1;align=center;verticalAlign=middle;resizable=0;points=[];" parent="Se64f8x0FAVomV_Zp5eu-32" vertex="1" connectable="0">
          <mxGeometry x="-0.272" y="-3" relative="1" as="geometry">
            <mxPoint as="offset" />
          </mxGeometry>
        </mxCell>
        <mxCell id="Se64f8x0FAVomV_Zp5eu-16" value="interaction_date &amp;gt; stored_interaction_date" style="rhombus;whiteSpace=wrap;html=1;" parent="1" vertex="1">
          <mxGeometry x="120" y="370" width="190" height="80" as="geometry" />
        </mxCell>
        <mxCell id="Se64f8x0FAVomV_Zp5eu-18" value="END" style="ellipse;whiteSpace=wrap;html=1;" parent="1" vertex="1">
          <mxGeometry x="10" y="380" width="60" height="60" as="geometry" />
        </mxCell>
        <mxCell id="Se64f8x0FAVomV_Zp5eu-30" value="" style="edgeStyle=orthogonalEdgeStyle;rounded=0;orthogonalLoop=1;jettySize=auto;html=1;" parent="1" source="Se64f8x0FAVomV_Zp5eu-27" target="Se64f8x0FAVomV_Zp5eu-29" edge="1">
          <mxGeometry relative="1" as="geometry" />
        </mxCell>
        <mxCell id="Se64f8x0FAVomV_Zp5eu-27" value="Get the existing consent based on the Local Sys ID" style="whiteSpace=wrap;html=1;" parent="1" vertex="1">
          <mxGeometry x="700" y="380" width="120" height="60" as="geometry" />
        </mxCell>
        <mxCell id="Se64f8x0FAVomV_Zp5eu-31" style="edgeStyle=orthogonalEdgeStyle;rounded=0;orthogonalLoop=1;jettySize=auto;html=1;entryX=1;entryY=0.5;entryDx=0;entryDy=0;" parent="1" source="Se64f8x0FAVomV_Zp5eu-29" target="Se64f8x0FAVomV_Zp5eu-14" edge="1">
          <mxGeometry relative="1" as="geometry" />
        </mxCell>
        <mxCell id="Se64f8x0FAVomV_Zp5eu-33" value="Yes" style="edgeLabel;html=1;align=center;verticalAlign=middle;resizable=0;points=[];" parent="Se64f8x0FAVomV_Zp5eu-31" vertex="1" connectable="0">
          <mxGeometry x="0.005" y="1" relative="1" as="geometry">
            <mxPoint as="offset" />
          </mxGeometry>
        </mxCell>
        <mxCell id="Se64f8x0FAVomV_Zp5eu-35" value="" style="edgeStyle=orthogonalEdgeStyle;rounded=0;orthogonalLoop=1;jettySize=auto;html=1;" parent="1" source="Se64f8x0FAVomV_Zp5eu-29" target="Se64f8x0FAVomV_Zp5eu-34" edge="1">
          <mxGeometry relative="1" as="geometry" />
        </mxCell>
        <mxCell id="Se64f8x0FAVomV_Zp5eu-36" value="No" style="edgeLabel;html=1;align=center;verticalAlign=middle;resizable=0;points=[];" parent="Se64f8x0FAVomV_Zp5eu-35" vertex="1" connectable="0">
          <mxGeometry y="1" relative="1" as="geometry">
            <mxPoint as="offset" />
          </mxGeometry>
        </mxCell>
        <mxCell id="Se64f8x0FAVomV_Zp5eu-29" value="IsConsent Exists" style="rhombus;whiteSpace=wrap;html=1;" parent="1" vertex="1">
          <mxGeometry x="580" y="370" width="80" height="80" as="geometry" />
        </mxCell>
        <mxCell id="Se64f8x0FAVomV_Zp5eu-40" value="" style="edgeStyle=orthogonalEdgeStyle;rounded=0;orthogonalLoop=1;jettySize=auto;html=1;" parent="1" source="Se64f8x0FAVomV_Zp5eu-34" target="Se64f8x0FAVomV_Zp5eu-39" edge="1">
          <mxGeometry relative="1" as="geometry" />
        </mxCell>
        <mxCell id="Se64f8x0FAVomV_Zp5eu-34" value="SearchMatch" style="whiteSpace=wrap;html=1;" parent="1" vertex="1">
          <mxGeometry x="560" y="540" width="120" height="60" as="geometry" />
        </mxCell>
        <mxCell id="Se64f8x0FAVomV_Zp5eu-42" value="" style="edgeStyle=orthogonalEdgeStyle;rounded=0;orthogonalLoop=1;jettySize=auto;html=1;" parent="1" source="Se64f8x0FAVomV_Zp5eu-39" target="Se64f8x0FAVomV_Zp5eu-41" edge="1">
          <mxGeometry relative="1" as="geometry" />
        </mxCell>
        <mxCell id="Se64f8x0FAVomV_Zp5eu-45" value="No" style="edgeLabel;html=1;align=center;verticalAlign=middle;resizable=0;points=[];" parent="Se64f8x0FAVomV_Zp5eu-42" vertex="1" connectable="0">
          <mxGeometry x="-0.3067" y="-3" relative="1" as="geometry">
            <mxPoint as="offset" />
          </mxGeometry>
        </mxCell>
        <mxCell id="Se64f8x0FAVomV_Zp5eu-44" value="" style="edgeStyle=orthogonalEdgeStyle;rounded=0;orthogonalLoop=1;jettySize=auto;html=1;" parent="1" source="Se64f8x0FAVomV_Zp5eu-39" target="Se64f8x0FAVomV_Zp5eu-43" edge="1">
          <mxGeometry relative="1" as="geometry" />
        </mxCell>
        <mxCell id="Se64f8x0FAVomV_Zp5eu-46" value="Yes" style="edgeLabel;html=1;align=center;verticalAlign=middle;resizable=0;points=[];" parent="Se64f8x0FAVomV_Zp5eu-44" vertex="1" connectable="0">
          <mxGeometry x="0.0067" y="-1" relative="1" as="geometry">
            <mxPoint as="offset" />
          </mxGeometry>
        </mxCell>
        <mxCell id="Se64f8x0FAVomV_Zp5eu-39" value="isMatched" style="rhombus;whiteSpace=wrap;html=1;" parent="1" vertex="1">
          <mxGeometry x="580" y="670" width="80" height="80" as="geometry" />
        </mxCell>
        <mxCell id="Se64f8x0FAVomV_Zp5eu-41" value="OT Consent Update" style="whiteSpace=wrap;html=1;" parent="1" vertex="1">
          <mxGeometry x="720" y="680" width="120" height="60" as="geometry" />
        </mxCell>
        <mxCell id="Se64f8x0FAVomV_Zp5eu-48" value="" style="edgeStyle=orthogonalEdgeStyle;rounded=0;orthogonalLoop=1;jettySize=auto;html=1;" parent="1" source="Se64f8x0FAVomV_Zp5eu-43" target="Se64f8x0FAVomV_Zp5eu-47" edge="1">
          <mxGeometry relative="1" as="geometry" />
        </mxCell>
        <mxCell id="Se64f8x0FAVomV_Zp5eu-43" value="Get the MDM_IDs marked for merging" style="whiteSpace=wrap;html=1;" parent="1" vertex="1">
          <mxGeometry x="400" y="680" width="120" height="60" as="geometry" />
        </mxCell>
        <mxCell id="Se64f8x0FAVomV_Zp5eu-52" value="" style="edgeStyle=orthogonalEdgeStyle;rounded=0;orthogonalLoop=1;jettySize=auto;html=1;" parent="1" source="Se64f8x0FAVomV_Zp5eu-47" target="Se64f8x0FAVomV_Zp5eu-51" edge="1">
          <mxGeometry relative="1" as="geometry" />
        </mxCell>
        <mxCell id="Se64f8x0FAVomV_Zp5eu-47" value="Get the existing Consent from OT for all the MDM_IDs" style="whiteSpace=wrap;html=1;" parent="1" vertex="1">
          <mxGeometry x="230" y="680" width="120" height="60" as="geometry" />
        </mxCell>
        <mxCell id="Se64f8x0FAVomV_Zp5eu-51" value="OT Consent Update with Merge service call(s)" style="whiteSpace=wrap;html=1;" parent="1" vertex="1">
          <mxGeometry x="30" y="680" width="120" height="60" as="geometry" />
        </mxCell>
      </root>
    </mxGraphModel>
  </diagram>
  <diagram id="46l0zSxSU8eMy5lDPcTM" name="Page-5">
    <mxGraphModel dx="1050" dy="1761" grid="1" gridSize="10" guides="1" tooltips="1" connect="1" arrows="1" fold="1" page="1" pageScale="1" pageWidth="850" pageHeight="1100" math="0" shadow="0">
      <root>
        <mxCell id="0" />
        <mxCell id="1" parent="0" />
        <mxCell id="tUCavfsINqzPH66Htr0n-4" style="edgeStyle=orthogonalEdgeStyle;rounded=0;orthogonalLoop=1;jettySize=auto;html=1;" edge="1" parent="1" source="tUCavfsINqzPH66Htr0n-1" target="tUCavfsINqzPH66Htr0n-3">
          <mxGeometry relative="1" as="geometry" />
        </mxCell>
        <mxCell id="tUCavfsINqzPH66Htr0n-1" value="person_basic_260325.csv (26/3)&lt;div&gt;&lt;br&gt;&lt;/div&gt;&lt;div&gt;person_basic_250325.csv (25/3)&lt;div&gt;&lt;br&gt;&lt;/div&gt;&lt;/div&gt;&lt;div&gt;person_basic_240325.csv (24/3)&lt;div&gt;&lt;br&gt;&lt;/div&gt;&lt;/div&gt;&lt;div&gt;person_basic_230325.csv (23/3)&lt;div&gt;&lt;br&gt;&lt;/div&gt;&lt;/div&gt;" style="rounded=0;whiteSpace=wrap;html=1;" vertex="1" parent="1">
          <mxGeometry x="110" y="-960" width="210" height="130" as="geometry" />
        </mxCell>
        <mxCell id="tUCavfsINqzPH66Htr0n-2" value="S3 (4 days file)" style="text;html=1;align=center;verticalAlign=middle;whiteSpace=wrap;rounded=0;" vertex="1" parent="1">
          <mxGeometry x="110" y="-1010" width="210" height="30" as="geometry" />
        </mxCell>
        <mxCell id="tUCavfsINqzPH66Htr0n-3" value="FIFO Basis" style="text;html=1;align=center;verticalAlign=middle;whiteSpace=wrap;rounded=0;" vertex="1" parent="1">
          <mxGeometry x="380" y="-910" width="120" height="30" as="geometry" />
        </mxCell>
        <mxCell id="tUCavfsINqzPH66Htr0n-5" value="Scenario-1 : Job keeps on running&lt;div&gt;&lt;br&gt;&lt;/div&gt;&lt;div&gt;Scenario-2 : Job failed&lt;/div&gt;" style="text;html=1;align=left;verticalAlign=middle;whiteSpace=wrap;rounded=0;" vertex="1" parent="1">
          <mxGeometry x="510" y="-960" width="240" height="130" as="geometry" />
        </mxCell>
      </root>
    </mxGraphModel>
  </diagram>
</mxfile>
